<svg width="22" height="22" viewBox="0 0 22 22" fill="none" xmlns="http://www.w3.org/2000/svg">
<path d="M11 1.83334C5.94902 1.83334 1.83337 5.94898 1.83337 11C1.83337 16.051 5.94902 20.1667 11 20.1667C16.0511 20.1667 20.1667 16.051 20.1667 11C20.1667 5.94898 16.0511 1.83334 11 1.83334ZM11.7483 14.2738C11.7483 14.648 11.4677 15.0221 11 15.0221C10.5324 15.0221 10.2517 14.7415 10.2517 14.2738V10.5323C10.2517 10.1582 10.5324 9.78402 11 9.78402C11.4677 9.78402 11.7483 10.0646 11.7483 10.5323V14.2738ZM11 8.66157C10.5324 8.66157 10.0647 8.19388 10.0647 7.72619C10.0647 7.25851 10.5324 6.79082 11 6.79082C11.4677 6.79082 11.9354 7.25851 11.9354 7.72619C11.9354 8.19388 11.4677 8.66157 11 8.66157Z" fill="#D616D6"/>
</svg>
