<svg width="48" height="48" viewBox="0 0 48 48" fill="none" xmlns="http://www.w3.org/2000/svg">
<path d="M37.8617 11.2829C35.3122 10.1131 32.5783 9.25125 29.7198 8.75762C29.6678 8.7481 29.6158 8.77191 29.589 8.81952C29.2374 9.44488 28.8479 10.2607 28.5752 10.902C25.5007 10.4417 22.442 10.4417 19.4305 10.902C19.1577 10.2465 18.7541 9.44488 18.401 8.81952C18.3741 8.77349 18.3221 8.74969 18.2701 8.75762C15.4132 9.24967 12.6793 10.1115 10.1282 11.2829C10.1061 11.2924 10.0872 11.3083 10.0746 11.3289C4.88899 19.0762 3.46842 26.633 4.1653 34.0962C4.16845 34.1327 4.18895 34.1676 4.21733 34.1898C7.63868 36.7024 10.9528 38.2278 14.2055 39.2388C14.2575 39.2547 14.3127 39.2356 14.3458 39.1928C15.1152 38.1421 15.8011 37.0342 16.3891 35.8691C16.4238 35.8009 16.3907 35.7199 16.3198 35.6929C15.2319 35.2803 14.196 34.7771 13.1996 34.2057C13.1207 34.1597 13.1144 34.047 13.1869 33.993C13.3966 33.8359 13.6064 33.6724 13.8066 33.5073C13.8428 33.4772 13.8933 33.4708 13.9359 33.4898C20.4821 36.4786 27.5692 36.4786 34.0383 33.4898C34.0808 33.4692 34.1313 33.4756 34.1691 33.5057C34.3694 33.6708 34.5791 33.8359 34.7904 33.993C34.8629 34.047 34.8581 34.1597 34.7793 34.2057C33.7829 34.7882 32.747 35.2803 31.6575 35.6914C31.5866 35.7183 31.555 35.8009 31.5897 35.8691C32.1904 37.0325 32.8763 38.1404 33.6315 39.1912C33.663 39.2356 33.7198 39.2547 33.7718 39.2388C37.0402 38.2278 40.3544 36.7024 43.7757 34.1898C43.8057 34.1676 43.8246 34.1343 43.8278 34.0978C44.6618 25.4696 42.4308 17.9747 37.9137 11.3305C37.9026 11.3083 37.8838 11.2924 37.8617 11.2829ZM17.3667 29.5519C15.3958 29.5519 13.7719 27.7425 13.7719 25.5204C13.7719 23.2982 15.3643 21.4888 17.3667 21.4888C19.3848 21.4888 20.993 23.3141 20.9615 25.5204C20.9615 27.7425 19.369 29.5519 17.3667 29.5519ZM30.6579 29.5519C28.6871 29.5519 27.0632 27.7425 27.0632 25.5204C27.0632 23.2982 28.6555 21.4888 30.6579 21.4888C32.6761 21.4888 34.2842 23.3141 34.2527 25.5204C34.2527 27.7425 32.6761 29.5519 30.6579 29.5519Z" fill="black"/>
<path d="M37.5551 11.6925C41.9461 18.185 44.1204 25.4859 43.3457 33.8848C40.1109 36.2377 36.976 37.6977 33.8817 38.6804C33.2802 37.8259 32.7259 36.9343 32.2272 36.0064C33.1995 35.6179 34.1312 35.1638 35.0317 34.6374C35.4273 34.4062 35.4418 33.8546 35.0889 33.5919L35.0888 33.5918C34.8848 33.4401 34.6816 33.2802 34.4871 33.1199L34.4872 33.1198L34.4808 33.1148C34.3009 32.9713 34.0481 32.9322 33.8259 33.0372C27.4914 35.9629 20.5578 35.9635 14.1436 33.035L14.14 33.0334C13.9269 32.9381 13.6726 32.9683 13.4868 33.1229L13.8066 33.5073M37.5551 11.6925L4.1653 34.0962M37.5551 11.6925C35.1504 10.5988 32.5806 9.78295 29.8972 9.29677M37.5551 11.6925C37.5368 11.6656 37.5185 11.6386 37.5002 11.6116L37.4811 11.5836L37.466 11.5533C37.4765 11.5743 37.4883 11.5935 37.501 11.6111C37.5459 11.6729 37.6022 11.7134 37.6532 11.7373C37.6567 11.739 37.6602 11.7405 37.6637 11.742L37.6531 11.7375L10.4324 11.6936M13.8066 33.5073C13.6949 33.5994 13.5803 33.6909 13.4644 33.7812C13.459 33.7781 13.4536 33.775 13.4483 33.772L13.4258 33.8111C13.3465 33.8725 13.2667 33.9332 13.1869 33.993M13.8066 33.5073L13.4885 33.1215C13.2955 33.2806 13.0922 33.4391 12.8877 33.5924M13.8066 33.5073C13.8428 33.4772 13.8933 33.4708 13.9359 33.4898C20.4821 36.4786 27.5692 36.4786 34.0383 33.4898C34.0808 33.4692 34.1313 33.4756 34.1691 33.5057C34.2814 33.5983 34.3967 33.6908 34.5135 33.782C34.518 33.7793 34.5225 33.7767 34.527 33.7741C34.5225 33.7767 34.5181 33.7794 34.5137 33.7822C34.5247 33.7907 34.5357 33.7993 34.5467 33.8078C34.5469 33.8079 34.547 33.8081 34.5472 33.8082C34.6277 33.8706 34.7089 33.9324 34.7904 33.993C34.8629 34.047 34.8581 34.1597 34.7793 34.2057C34.6939 34.2556 34.6082 34.3049 34.5222 34.3535L34.492 34.3942C34.4919 34.3942 34.4919 34.3941 34.4918 34.3941M13.1869 33.993L12.8884 33.5919C12.8882 33.5921 12.888 33.5922 12.8877 33.5924M13.1869 33.993C13.1144 34.047 13.1207 34.1597 13.1995 34.2057L13.1869 33.993ZM12.8877 33.5924C12.5261 33.8623 12.5619 34.4123 12.9474 34.6375L12.9508 34.6395C13.8486 35.1543 14.7803 35.6162 15.7544 36.0086C15.2643 36.9365 14.71 37.8273 14.099 38.6811C11.0185 37.6984 7.88323 36.2383 4.64814 33.8854C3.99967 26.61 5.40015 19.2516 10.4324 11.6936M12.8877 33.5924L10.4324 11.6936M34.4918 34.3941L34.5218 34.3537C34.5061 34.3626 34.4903 34.3715 34.4745 34.3804C34.4801 34.3851 34.4859 34.3897 34.4918 34.3941ZM34.4918 34.3941C34.4858 34.3896 34.4799 34.3852 34.4739 34.3807C33.5715 34.8875 32.6361 35.3221 31.6575 35.6914M31.6575 35.6914C31.5866 35.7183 31.555 35.8009 31.5897 35.8691M31.6575 35.6914L31.7026 35.8108M31.6575 35.6914L31.7029 35.8107L31.7026 35.8108M31.5897 35.8691C32.1904 37.0325 32.8763 38.1404 33.6315 39.1912C33.663 39.2356 33.7198 39.2547 33.7718 39.2388C37.0402 38.2278 40.3544 36.7024 43.7757 34.1898C43.8057 34.1676 43.8246 34.1343 43.8278 34.0978C44.6618 25.4696 42.4308 17.9747 37.9137 11.3305C37.9026 11.3083 37.8838 11.2924 37.8617 11.2829C35.3122 10.1131 32.5783 9.25125 29.7198 8.75762C29.6678 8.7481 29.6158 8.77191 29.589 8.81952M31.5897 35.8691L31.7026 35.8108M31.5897 35.8691L31.7029 35.8116L31.7026 35.8108M29.589 8.81952C29.2374 9.44488 28.8479 10.2607 28.5752 10.902C25.5007 10.4417 22.442 10.4417 19.4305 10.902C19.1577 10.2465 18.7541 9.44488 18.401 8.81952M29.589 8.81952L29.6973 8.88056L29.6985 8.88121L30.0246 9.06488C29.9475 9.20184 29.7908 9.27674 29.6347 9.25032C29.6331 9.25005 29.6315 9.24976 29.6298 9.24946L29.6298 9.24948L29.6347 9.25033C29.7224 9.26546 29.8099 9.28094 29.8972 9.29677M29.589 8.81952L29.6974 8.88047L29.6985 8.88112L30.0248 9.06457C29.9828 9.13927 29.9402 9.2169 29.8972 9.29677M18.401 8.81952C18.3741 8.77349 18.3221 8.74969 18.2701 8.75762M18.401 8.81952L18.2914 8.8814L18.2701 8.75762M18.401 8.81952L18.2917 8.88317L18.3549 9.25037C18.2678 9.26538 18.1808 9.28073 18.0939 9.29643M18.2701 8.75762C15.4132 9.24967 12.6793 10.1115 10.1282 11.2829C10.1061 11.2924 10.0872 11.3083 10.0746 11.3289C4.88899 19.0762 3.46842 26.633 4.1653 34.0962M18.2701 8.75762L18.2892 8.88267L17.9656 9.0654C18.0078 9.14006 18.0506 9.21727 18.0939 9.29643M4.1653 34.0962L4.16544 34.0962L4.1653 34.0962ZM18.0939 9.29643C15.4106 9.78134 12.8396 10.5977 10.4324 11.6936M18.0939 9.29643C18.4056 9.86648 18.7376 10.5382 18.9689 11.0941L19.1193 11.4553L19.5061 11.3962C22.4669 10.9437 25.4752 10.9434 28.5011 11.3964L28.8838 11.4537L29.0353 11.0976C29.2696 10.5467 29.5918 9.86484 29.8972 9.29677M13.4855 34.3941L13.4868 34.3931L13.4855 34.3941ZM17.9689 9.07123L18.2894 8.8845L18.3455 9.25191C18.2008 9.27397 18.0485 9.20787 17.9689 9.07123ZM4.66346 34.0532L4.66313 34.0497L4.66346 34.0532ZM31.7032 35.8114L32.0354 35.6424C32.1338 35.8358 32.0458 36.0786 31.8353 36.1587L31.7032 35.8114ZM34.0392 38.9018L34.0375 38.8994C34.0381 38.9002 34.0387 38.901 34.0392 38.9018ZM13.2719 25.5204C13.2719 27.9642 15.0682 30.0519 17.3667 30.0519C19.6982 30.0519 21.4598 27.9632 21.4615 25.5239C21.4945 23.0908 19.7106 20.9888 17.3667 20.9888C15.0341 20.9888 13.2719 23.0795 13.2719 25.5204ZM26.5632 25.5204C26.5632 27.9642 28.3595 30.0519 30.6579 30.0519C33.0065 30.0519 34.751 27.9618 34.7527 25.524C34.7857 23.0909 33.0019 20.9888 30.6579 20.9888C28.3253 20.9888 26.5632 23.0795 26.5632 25.5204Z" stroke="#D616D6" stroke-opacity="0.3"/>
</svg>
