<svg width="48" height="48" viewBox="0 0 48 48" fill="none" xmlns="http://www.w3.org/2000/svg">
<path fill-rule="evenodd" clip-rule="evenodd" d="M24 6C19.1112 6 18.4992 6.0204 16.5792 6.108C14.6628 6.1956 13.3536 6.5004 12.2088 6.9456C11.0088 7.3968 9.9204 8.1048 9.0204 9.0216C8.10507 9.92056 7.39663 11.0082 6.9444 12.2088C6.5016 13.3536 6.1956 14.664 6.108 16.5804C6.0216 18.4992 6 19.11 6 24C6 28.89 6.0204 29.5008 6.108 31.4208C6.1956 33.3372 6.5004 34.6464 6.9456 35.7912C7.3968 36.9912 8.1048 38.0796 9.0216 38.9796C9.92059 39.8949 11.0082 40.6033 12.2088 41.0556C13.3536 41.4996 14.6628 41.8044 16.5792 41.892C18.4992 41.9796 19.1112 42 24 42C28.8888 42 29.5008 41.9796 31.4208 41.892C33.3372 41.8044 34.6464 41.4996 35.7912 41.0544C36.9912 40.6032 38.0796 39.8952 38.9796 38.9784C39.8949 38.0794 40.6034 36.9918 41.0556 35.7912C41.4996 34.6464 41.8044 33.3372 41.892 31.4208C41.9796 29.5008 42 28.8888 42 24C42 19.1112 41.9796 18.4992 41.892 16.5792C41.8044 14.6628 41.4996 13.3536 41.0544 12.2088C40.6025 11.0077 39.894 9.91959 38.9784 9.0204C38.0794 8.10507 36.9918 7.39663 35.7912 6.9444C34.6464 6.5016 33.336 6.1956 31.4196 6.108C29.5008 6.0216 28.89 6 24 6ZM24 9.2436C28.806 9.2436 29.376 9.2616 31.2744 9.348C33.0288 9.4284 33.9816 9.72 34.6164 9.9684C35.4564 10.2936 36.0564 10.6848 36.6864 11.3136C37.3164 11.9436 37.7064 12.5436 38.0316 13.3836C38.2788 14.0184 38.5716 14.9712 38.652 16.7256C38.7384 18.624 38.7564 19.194 38.7564 24C38.7564 28.806 38.7384 29.376 38.652 31.2744C38.5716 33.0288 38.28 33.9816 38.0316 34.6164C37.7435 35.3983 37.2839 36.1056 36.6864 36.6864C36.1057 37.284 35.3983 37.7437 34.6164 38.0316C33.9816 38.2788 33.0288 38.5716 31.2744 38.652C29.376 38.7384 28.8072 38.7564 24 38.7564C19.1928 38.7564 18.624 38.7384 16.7256 38.652C14.9712 38.5716 14.0184 38.28 13.3836 38.0316C12.6017 37.7435 11.8944 37.2839 11.3136 36.6864C10.7162 36.1055 10.2566 35.3982 9.9684 34.6164C9.7212 33.9816 9.4284 33.0288 9.348 31.2744C9.2616 29.376 9.2436 28.806 9.2436 24C9.2436 19.194 9.2616 18.624 9.348 16.7256C9.4284 14.9712 9.72 14.0184 9.9684 13.3836C10.2936 12.5436 10.6848 11.9436 11.3136 11.3136C11.8943 10.7161 12.6017 10.2564 13.3836 9.9684C14.0184 9.7212 14.9712 9.4284 16.7256 9.348C18.624 9.2616 19.194 9.2436 24 9.2436V9.2436Z" fill="black"/>
<path d="M12.3848 7.41364L12.3848 7.41361C11.2528 7.83922 10.2262 8.50706 9.37721 9.37187L9.37081 9.37839L9.37075 9.37833C8.50725 10.2264 7.83893 11.2524 7.41231 12.385L7.41075 12.3892L7.41073 12.3892C6.98955 13.4781 6.69291 14.7345 6.60749 16.6031L12.3848 7.41364ZM12.3848 7.41364L12.39 7.4116M12.3848 7.41364L12.39 7.4116M12.39 7.4116C13.4782 6.98842 14.733 6.69291 16.602 6.60748C18.5105 6.5204 19.1136 6.5 24 6.5M12.39 7.4116L24 6.5M7.41364 35.6152L7.41361 35.6152C7.83922 36.7472 8.50706 37.7738 9.37187 38.6228L9.37838 38.6292L9.37832 38.6292C10.2264 39.4927 11.2524 40.161 12.3851 40.5877L12.3896 40.5894C13.4781 41.0116 14.7331 41.3071 16.602 41.3925C18.5105 41.4796 19.1136 41.5 24 41.5C28.8864 41.5 29.4895 41.4796 31.398 41.3925C33.2669 41.3071 34.5218 41.0116 35.61 40.5884L35.6152 40.5864L35.6152 40.5864C36.7472 40.1608 37.7738 39.4929 38.6228 38.6281L38.6292 38.6216L38.6293 38.6217C39.4928 37.7736 40.1611 36.7476 40.5877 35.615L40.5894 35.6104C41.0116 34.5219 41.3071 33.2669 41.3925 31.398C41.4796 29.4895 41.5 28.8864 41.5 24C41.5 19.1136 41.4796 18.5105 41.3925 16.602C41.3071 14.7331 41.0116 13.4782 40.5884 12.39L40.5864 12.3849C40.1601 11.2518 39.4918 10.2254 38.6281 9.37714L38.6216 9.37081L38.6217 9.37075C37.7736 8.50725 36.7476 7.83893 35.615 7.41231L35.6108 7.41075L35.6108 7.41073C34.522 6.98957 33.2656 6.69293 31.3971 6.60749L7.41364 35.6152ZM7.41364 35.6152L7.4116 35.61M7.41364 35.6152L7.4116 35.61M7.4116 35.61C6.98842 34.5218 6.69291 33.2669 6.60748 31.398C6.5204 29.4895 6.5 28.8876 6.5 24C6.5 19.1129 6.52159 18.5106 6.60748 16.6032L7.4116 35.61ZM24 6.5C28.8872 6.5 29.4894 6.52159 31.397 6.60749L24 6.5ZM31.2973 8.84852L31.2971 8.84852C29.3872 8.76159 28.8081 8.7436 24 8.7436C19.1919 8.7436 18.6128 8.76159 16.7029 8.84852L16.7027 8.84852C14.8971 8.93127 13.8912 9.23451 13.2064 9.50082C12.3571 9.81435 11.5887 10.3138 10.9574 10.9627C10.2809 11.641 9.85219 12.2991 9.50246 13.2022C9.23419 13.888 8.93139 14.8945 8.84852 16.7027L8.84852 16.7029C8.76159 18.6128 8.7436 19.1919 8.7436 24C8.7436 28.8081 8.76159 29.3872 8.84852 31.2971L8.84852 31.2973C8.93127 33.1029 9.23452 34.1088 9.50083 34.7936C9.8141 35.6416 10.3126 36.409 10.96 37.04C11.5908 37.6873 12.3581 38.1858 13.206 38.499C13.8917 38.7669 14.8978 39.0688 16.7027 39.1515L16.7029 39.1515C18.6128 39.2384 19.1907 39.2564 24 39.2564C28.8093 39.2564 29.3872 39.2384 31.2971 39.1515L31.2973 39.1515C33.1029 39.0687 34.1087 38.7655 34.7935 38.4992C35.6417 38.1861 36.4092 37.6876 37.04 37.04C37.6874 36.4092 38.1858 35.6419 38.499 34.794C38.7669 34.1083 39.0688 33.1021 39.1515 31.2973L39.1515 31.2971C39.2384 29.3872 39.2564 28.8081 39.2564 24C39.2564 19.1919 39.2384 18.6128 39.1515 16.7029L39.1515 16.7027C39.0686 14.8942 38.7645 13.8879 38.4979 13.2031C38.1478 12.2989 37.7197 11.6398 37.04 10.96L37.0396 10.9597C36.3606 10.2819 35.7019 9.85259 34.7978 9.50246C34.112 9.23419 33.1055 8.93139 31.2973 8.84852Z" stroke="#D616D6" stroke-opacity="0.3"/>
<mask id="path-3-inside-1_4_752" fill="white">
<path fill-rule="evenodd" clip-rule="evenodd" d="M24 30.006C23.2113 30.006 22.4303 29.8507 21.7016 29.5488C20.973 29.247 20.3109 28.8046 19.7532 28.2469C19.1955 27.6892 18.7531 27.0271 18.4512 26.2984C18.1494 25.5697 17.994 24.7887 17.994 24C17.994 23.2113 18.1494 22.4303 18.4512 21.7016C18.7531 20.9729 19.1955 20.3108 19.7532 19.7531C20.3109 19.1954 20.973 18.753 21.7016 18.4512C22.4303 18.1494 23.2113 17.994 24 17.994C25.5929 17.994 27.1206 18.6268 28.2469 19.7531C29.3733 20.8795 30.006 22.4071 30.006 24C30.006 25.5929 29.3733 27.1205 28.2469 28.2469C27.1206 29.3732 25.5929 30.006 24 30.006V30.006ZM24 14.748C21.5463 14.748 19.193 15.7228 17.4579 17.4579C15.7228 19.1929 14.748 21.5462 14.748 24C14.748 26.4538 15.7228 28.8071 17.4579 30.5422C19.193 32.2772 21.5463 33.252 24 33.252C26.4538 33.252 28.8071 32.2772 30.5422 30.5422C32.2773 28.8071 33.252 26.4538 33.252 24C33.252 21.5462 32.2773 19.1929 30.5422 17.4579C28.8071 15.7228 26.4538 14.748 24 14.748V14.748ZM35.9436 14.58C35.9436 15.16 35.7132 15.7163 35.3031 16.1264C34.8929 16.5366 34.3367 16.767 33.7566 16.767C33.1766 16.767 32.6203 16.5366 32.2102 16.1264C31.8001 15.7163 31.5696 15.16 31.5696 14.58C31.5696 14 31.8001 13.4437 32.2102 13.0336C32.6203 12.6234 33.1766 12.393 33.7566 12.393C34.3367 12.393 34.8929 12.6234 35.3031 13.0336C35.7132 13.4437 35.9436 14 35.9436 14.58"/>
</mask>
<path fill-rule="evenodd" clip-rule="evenodd" d="M24 30.006C23.2113 30.006 22.4303 29.8507 21.7016 29.5488C20.973 29.247 20.3109 28.8046 19.7532 28.2469C19.1955 27.6892 18.7531 27.0271 18.4512 26.2984C18.1494 25.5697 17.994 24.7887 17.994 24C17.994 23.2113 18.1494 22.4303 18.4512 21.7016C18.7531 20.9729 19.1955 20.3108 19.7532 19.7531C20.3109 19.1954 20.973 18.753 21.7016 18.4512C22.4303 18.1494 23.2113 17.994 24 17.994C25.5929 17.994 27.1206 18.6268 28.2469 19.7531C29.3733 20.8795 30.006 22.4071 30.006 24C30.006 25.5929 29.3733 27.1205 28.2469 28.2469C27.1206 29.3732 25.5929 30.006 24 30.006V30.006ZM24 14.748C21.5463 14.748 19.193 15.7228 17.4579 17.4579C15.7228 19.1929 14.748 21.5462 14.748 24C14.748 26.4538 15.7228 28.8071 17.4579 30.5422C19.193 32.2772 21.5463 33.252 24 33.252C26.4538 33.252 28.8071 32.2772 30.5422 30.5422C32.2773 28.8071 33.252 26.4538 33.252 24C33.252 21.5462 32.2773 19.1929 30.5422 17.4579C28.8071 15.7228 26.4538 14.748 24 14.748V14.748ZM35.9436 14.58C35.9436 15.16 35.7132 15.7163 35.3031 16.1264C34.8929 16.5366 34.3367 16.767 33.7566 16.767C33.1766 16.767 32.6203 16.5366 32.2102 16.1264C31.8001 15.7163 31.5696 15.16 31.5696 14.58C31.5696 14 31.8001 13.4437 32.2102 13.0336C32.6203 12.6234 33.1766 12.393 33.7566 12.393C34.3367 12.393 34.8929 12.6234 35.3031 13.0336C35.7132 13.4437 35.9436 14 35.9436 14.58" fill="black"/>
<path d="M24 17.994L24 18.994L24 17.994ZM14.748 24H13.748H14.748ZM33.252 24H34.252H33.252ZM33.7566 12.393V11.393V12.393ZM24 29.006C23.3426 29.006 22.6917 28.8765 22.0843 28.6249L21.319 30.4727C22.169 30.8248 23.08 31.006 24 31.006L24 29.006ZM22.0843 28.6249C21.477 28.3734 20.9251 28.0046 20.4603 27.5398L19.0461 28.954C19.6966 29.6046 20.469 30.1206 21.319 30.4727L22.0843 28.6249ZM20.4603 27.5398C19.9954 27.0749 19.6267 26.5231 19.3751 25.9157L17.5273 26.6811C17.8794 27.5311 18.3955 28.3034 19.0461 28.954L20.4603 27.5398ZM19.3751 25.9157C19.1235 25.3084 18.994 24.6574 18.994 24H16.994C16.994 24.92 17.1753 25.8311 17.5273 26.6811L19.3751 25.9157ZM18.994 24C18.994 23.3426 19.1235 22.6916 19.3751 22.0843L17.5273 21.3189C17.1753 22.1689 16.994 23.08 16.994 24H18.994ZM19.3751 22.0843C19.6267 21.4769 19.9954 20.9251 20.4603 20.4602L19.0461 19.046C18.3955 19.6966 17.8794 20.4689 17.5273 21.3189L19.3751 22.0843ZM20.4603 20.4602C20.9251 19.9954 21.477 19.6266 22.0843 19.3751L21.319 17.5273C20.469 17.8794 19.6966 18.3954 19.0461 19.046L20.4603 20.4602ZM22.0843 19.3751C22.6917 19.1235 23.3426 18.994 24 18.994L24 16.994C23.08 16.994 22.169 17.1752 21.319 17.5273L22.0843 19.3751ZM24 18.994C25.3277 18.994 26.601 19.5214 27.5398 20.4602L28.954 19.046C27.6402 17.7321 25.8581 16.994 24 16.994L24 18.994ZM27.5398 20.4602C28.4786 21.399 29.006 22.6723 29.006 24H31.006C31.006 22.1419 30.2679 20.3599 28.954 19.046L27.5398 20.4602ZM29.006 24C29.006 25.3277 28.4786 26.601 27.5398 27.5398L28.954 28.954C30.2679 27.6401 31.006 25.8581 31.006 24H29.006ZM27.5398 27.5398C26.601 28.4786 25.3277 29.006 24 29.006L24 31.006C25.8581 31.006 27.6402 30.2679 28.954 28.954L27.5398 27.5398ZM24 13.748C21.281 13.748 18.6734 14.8281 16.7508 16.7507L18.165 18.165C19.7125 16.6174 21.8115 15.748 24 15.748V13.748ZM16.7508 16.7507C14.8282 18.6734 13.748 21.281 13.748 24H15.748C15.748 21.8114 16.6175 19.7125 18.165 18.165L16.7508 16.7507ZM13.748 24C13.748 26.719 14.8282 29.3266 16.7508 31.2493L18.165 29.8351C16.6175 28.2875 15.748 26.1886 15.748 24H13.748ZM16.7508 31.2493C18.6734 33.1719 21.281 34.252 24 34.252V32.252C21.8115 32.252 19.7125 31.3826 18.165 29.8351L16.7508 31.2493ZM24 34.252C26.719 34.252 29.3267 33.1719 31.2493 31.2493L29.8351 29.8351C28.2875 31.3826 26.1886 32.252 24 32.252V34.252ZM31.2493 31.2493C33.1719 29.3266 34.252 26.719 34.252 24H32.252C32.252 26.1886 31.3826 28.2875 29.8351 29.8351L31.2493 31.2493ZM34.252 24C34.252 21.281 33.1719 18.6734 31.2493 16.7507L29.8351 18.165C31.3826 19.7125 32.252 21.8114 32.252 24H34.252ZM31.2493 16.7507C29.3267 14.8281 26.719 13.748 24 13.748V15.748C26.1886 15.748 28.2875 16.6174 29.8351 18.165L31.2493 16.7507ZM34.9436 14.58C34.9436 14.8948 34.8186 15.1967 34.596 15.4193L36.0102 16.8336C36.6079 16.2359 36.9436 15.4252 36.9436 14.58H34.9436ZM34.596 15.4193C34.3734 15.6419 34.0715 15.767 33.7566 15.767V17.767C34.6019 17.767 35.4125 17.4312 36.0102 16.8336L34.596 15.4193ZM33.7566 15.767C33.4418 15.767 33.1399 15.6419 32.9173 15.4193L31.5031 16.8336C32.1008 17.4312 32.9114 17.767 33.7566 17.767V15.767ZM32.9173 15.4193C32.6947 15.1967 32.5696 14.8948 32.5696 14.58H30.5696C30.5696 15.4253 30.9054 16.2359 31.5031 16.8336L32.9173 15.4193ZM32.5696 14.58C32.5696 14.2652 32.6947 13.9633 32.9173 13.7407L31.5031 12.3265C30.9054 12.9241 30.5696 13.7348 30.5696 14.58H32.5696ZM32.9173 13.7407C33.1399 13.5181 33.4418 13.393 33.7566 13.393V11.393C32.9114 11.393 32.1008 11.7288 31.5031 12.3265L32.9173 13.7407ZM33.7566 13.393C34.0715 13.393 34.3734 13.5181 34.596 13.7407L36.0102 12.3265C35.4125 11.7288 34.6019 11.393 33.7566 11.393V13.393ZM34.596 13.7407C34.8186 13.9633 34.9436 14.2652 34.9436 14.58H36.9436C36.9436 13.7348 36.6079 12.9241 36.0102 12.3265L34.596 13.7407Z" fill="#D616D6" fill-opacity="0.3" mask="url(#path-3-inside-1_4_752)"/>
</svg>
