<svg width="48" height="48" viewBox="0 0 48 48" fill="none" xmlns="http://www.w3.org/2000/svg">
<mask id="path-1-inside-1_4_747" fill="white">
<path d="M36.2311 12.0179C34.0764 10.613 32.5213 8.36524 32.0362 5.74493C31.9314 5.17879 31.8738 4.59614 31.8738 4H24.997L24.9859 31.5599C24.8703 34.6461 22.3302 37.1232 19.2163 37.1232C18.2485 37.1232 17.3372 36.8812 16.5348 36.459C14.6949 35.4907 13.4357 33.562 13.4357 31.3426C13.4357 28.155 16.029 25.5617 19.2163 25.5617C19.8113 25.5617 20.3821 25.6598 20.922 25.829V18.8085C20.3632 18.7324 19.7956 18.6848 19.2163 18.6848C12.2368 18.6848 6.55884 24.3631 6.55884 31.3426C6.55884 35.6248 8.69835 39.4144 11.9624 41.7059C14.0184 43.1493 16.5192 44 19.2163 44C26.1958 44 31.8738 38.3221 31.8738 31.3426V17.3673C34.571 19.3032 37.8754 20.444 41.4412 20.444V13.5672C39.5204 13.5672 37.7314 12.9962 36.2311 12.0179"/>
</mask>
<path d="M36.2311 12.0179C34.0764 10.613 32.5213 8.36524 32.0362 5.74493C31.9314 5.17879 31.8738 4.59614 31.8738 4H24.997L24.9859 31.5599C24.8703 34.6461 22.3302 37.1232 19.2163 37.1232C18.2485 37.1232 17.3372 36.8812 16.5348 36.459C14.6949 35.4907 13.4357 33.562 13.4357 31.3426C13.4357 28.155 16.029 25.5617 19.2163 25.5617C19.8113 25.5617 20.3821 25.6598 20.922 25.829V18.8085C20.3632 18.7324 19.7956 18.6848 19.2163 18.6848C12.2368 18.6848 6.55884 24.3631 6.55884 31.3426C6.55884 35.6248 8.69835 39.4144 11.9624 41.7059C14.0184 43.1493 16.5192 44 19.2163 44C26.1958 44 31.8738 38.3221 31.8738 31.3426V17.3673C34.571 19.3032 37.8754 20.444 41.4412 20.444V13.5672C39.5204 13.5672 37.7314 12.9962 36.2311 12.0179" fill="black"/>
<path d="M32.0362 5.74493L31.0529 5.92694L31.0529 5.92698L32.0362 5.74493ZM31.8738 4H32.8738V3H31.8738V4ZM24.997 4V3H23.9974L23.997 3.9996L24.997 4ZM24.9859 31.5599L25.9852 31.5974L25.9859 31.5788L25.9859 31.5603L24.9859 31.5599ZM16.5348 36.459L16.0691 37.3439L16.0692 37.344L16.5348 36.459ZM20.922 25.829L20.6231 26.7832L21.922 27.1901V25.829H20.922ZM20.922 18.8085H21.922V17.9354L21.0569 17.8176L20.922 18.8085ZM11.9624 41.7059L12.537 40.8875L12.537 40.8875L11.9624 41.7059ZM31.8738 17.3673L32.4569 16.5549L30.8738 15.4187V17.3673H31.8738ZM41.4412 20.444V21.444H42.4412V20.444H41.4412ZM41.4412 13.5672H42.4412V12.5672H41.4412V13.5672ZM36.7773 11.1802C34.845 9.92039 33.4533 7.9061 33.0194 5.56288L31.0529 5.92698C31.5893 8.82437 33.3078 11.3056 35.6849 12.8556L36.7773 11.1802ZM33.0195 5.56291C32.9251 5.0532 32.8738 4.53153 32.8738 4H30.8738C30.8738 4.66076 30.9376 5.30438 31.0529 5.92694L33.0195 5.56291ZM31.8738 3H24.997V5H31.8738V3ZM23.997 3.9996L23.9859 31.5595L25.9859 31.5603L25.997 4.0004L23.997 3.9996ZM23.9866 31.5225C23.891 34.0755 21.7884 36.1232 19.2163 36.1232V38.1232C22.8721 38.1232 25.8497 35.2168 25.9852 31.5974L23.9866 31.5225ZM19.2163 36.1232C18.4174 36.1232 17.6653 35.9238 17.0005 35.574L16.0692 37.344C17.0091 37.8386 18.0796 38.1232 19.2163 38.1232V36.1232ZM17.0005 35.574C15.4741 34.7708 14.4357 33.174 14.4357 31.3426H12.4357C12.4357 33.9501 13.9156 36.2107 16.0691 37.3439L17.0005 35.574ZM14.4357 31.3426C14.4357 28.7073 16.5813 26.5617 19.2163 26.5617V24.5617C15.4767 24.5617 12.4357 27.6027 12.4357 31.3426H14.4357ZM19.2163 26.5617C19.7002 26.5617 20.1701 26.6414 20.6231 26.7832L21.2209 24.8747C20.594 24.6783 19.9224 24.5617 19.2163 24.5617V26.5617ZM21.922 25.829V18.8085H19.922V25.829H21.922ZM21.0569 17.8176C20.4639 17.7369 19.8501 17.6848 19.2163 17.6848V19.6848C19.741 19.6848 20.2626 19.7279 20.7871 19.7993L21.0569 17.8176ZM19.2163 17.6848C11.6845 17.6848 5.55884 23.8109 5.55884 31.3426H7.55884C7.55884 24.9154 12.7891 19.6848 19.2163 19.6848V17.6848ZM5.55884 31.3426C5.55884 35.966 7.86991 40.0547 11.3878 42.5244L12.537 40.8875C9.52678 38.7742 7.55884 35.2836 7.55884 31.3426H5.55884ZM11.3878 42.5244C13.6054 44.0812 16.3055 45 19.2163 45V43C16.7329 43 14.4314 42.2174 12.537 40.8875L11.3878 42.5244ZM19.2163 45C26.7481 45 32.8738 38.8744 32.8738 31.3426H30.8738C30.8738 37.7698 25.6435 43 19.2163 43V45ZM32.8738 31.3426V17.3673H30.8738V31.3426H32.8738ZM31.2907 18.1798C34.1517 20.2332 37.6588 21.444 41.4412 21.444V19.444C38.0921 19.444 34.9903 18.3732 32.4569 16.5549L31.2907 18.1798ZM42.4412 20.444V13.5672H40.4412V20.444H42.4412ZM41.4412 12.5672C39.7216 12.5672 38.1213 12.0566 36.7773 11.1802L35.6849 12.8555C37.3415 13.9357 39.3192 14.5672 41.4412 14.5672V12.5672Z" fill="#D616D6" fill-opacity="0.3" mask="url(#path-1-inside-1_4_747)"/>
</svg>
